# xmcd
#
# Track frame offsets:
# 150
# 19498
# 38085
# 56357
# 74392
# 89137
# 108461
# 124536
# 140527
# 160315
# 172494
# 188466
# 200290
#
# Disc length: 2864 seconds
#
#
# Revision: 0
# Processed by: cddbd v1.5.1PL0 Copyright (c) Steve Scherf et al.
# Submitted via: FreeRIP 2.60 
#
DISCID=bb0b2e0d
DTITLE=Adolfo - A família de JESUS
DYEAR=1900
DGENRE=Gospel
TTITLE0=Eis que a noite é passada (291)
TTITLE1=Em breve ao céu irei (191)
TTITLE2=Glória a Jesus! Glória a Jesus! (178)
TTITLE3=Ó minha alma, por que te abates? (178)
TTITLE4=Deste mundo mais nada esperarei (258)
TTITLE5=Teu Espírito em mim desça (261)
TTITLE6=Louvor nos céus altíssimos (036)
TTITLE7=A família de Jesus (325)
TTITLE8=Bom é estarmos nós aqui (341)
TTITLE9=Que grande bem! (406)
TTITLE10=Ó rosa de Saron (360)
TTITLE11=Teu amor, Teu amos, ó Cordeiro (058)
TTITLE12=Vivo por Cristo (066)
EXTD=
EXTT0=
EXTT1=
EXTT2=
EXTT3=
EXTT4=
EXTT5=
EXTT6=
EXTT7=
EXTT8=
EXTT9=
EXTT10=
EXTT11=
EXTT12=
PLAYORDER=
